<svg width="36" height="36" viewBox="0 0 36 36" fill="none" xmlns="http://www.w3.org/2000/svg">
<circle cx="18" cy="18" r="18" fill="url(#paint0_linear_138_11907)" fill-opacity="0.1"/>
<g clip-path="url(#clip0_138_11907)">
<path d="M17.9958 25.9913C15.1072 25.9913 12.2092 25.9738 9.32054 26C8.18572 26.0087 7.44481 25.563 6.99463 24.5841C6.48819 23.4653 6.15993 22.3116 6.00987 21.1054C5.97236 20.8344 6.01925 20.7208 6.35689 20.7296C7.07904 20.7558 7.79182 20.747 8.51398 20.7296C8.78596 20.7208 8.8985 20.782 8.90788 21.0617C8.93602 21.656 9.08608 22.2416 9.28303 22.8098C9.43309 23.2555 9.79886 23.4566 10.2115 23.3342C10.596 23.2293 10.7649 22.8535 10.6148 22.4077C9.74258 19.7157 10.249 17.2596 12.303 15.1969C14.31 13.1866 16.861 12.4699 19.7215 13.0817C22.6945 13.7111 24.6359 15.4679 25.5081 18.2123C25.9583 19.6195 25.8551 21.0267 25.3862 22.4164C25.1892 22.9933 25.5456 23.4216 26.1271 23.3517C26.4741 23.308 26.6242 23.0807 26.718 22.801C26.9055 22.2329 27.0556 21.656 27.0931 21.053C27.1119 20.8082 27.1869 20.7208 27.4495 20.7296C28.1998 20.747 28.9501 20.747 29.7004 20.7296C29.9536 20.7208 30.0286 20.7907 30.0005 21.0267C29.8317 22.4077 29.4847 23.7362 28.7906 24.9774C28.378 25.7028 27.684 25.9913 26.8118 25.9913C23.8668 25.9825 20.9313 25.9913 17.9958 25.9913ZM17.9583 23.3604C18.6054 23.3779 19.0931 23.1769 19.487 22.7923C19.8528 22.4339 20.2092 22.0668 20.5656 21.6997C21.8598 20.3625 23.1635 19.0252 24.4577 17.6879C24.7297 17.4082 24.8141 17.1023 24.5609 16.7877C24.3076 16.473 23.9606 16.473 23.5949 16.6303C23.3416 16.744 23.0978 16.8576 22.8446 16.9799C20.922 17.8715 18.9993 18.7542 17.0861 19.6545C16.1295 20.109 15.7074 20.983 15.9513 21.9182C16.167 22.7486 17.0392 23.3604 17.9583 23.3604Z" fill="url(#paint1_linear_138_11907)"/>
<path d="M10.0049 11.7968C11.965 10.2061 14.1784 9.3233 16.6731 9.03486C17.3015 8.96494 17.3015 8.9562 17.3015 9.56803C17.3015 10.1536 17.2921 10.7305 17.3109 11.3161C17.3202 11.5521 17.2358 11.622 16.9732 11.657C15.2382 11.8405 13.6626 12.4349 12.2839 13.4487C12.1338 13.5624 12.0213 13.6673 11.8337 13.4837C11.2335 12.9068 10.6239 12.3649 10.0049 11.7968Z" fill="url(#paint2_linear_138_11907)"/>
<path d="M25.9957 11.7969C25.3767 12.365 24.7671 12.9069 24.1762 13.4663C24.0168 13.6236 23.9136 13.5799 23.7542 13.4663C22.3567 12.4174 20.7624 11.8231 18.9898 11.6395C18.7178 11.6133 18.6991 11.4997 18.6991 11.3074C18.7084 10.6781 18.7272 10.0488 18.6897 9.42823C18.6615 9.03492 18.821 8.97373 19.1961 9.00869C21.1281 9.21846 22.9195 9.78659 24.5607 10.7655C25.039 11.0714 25.4986 11.3948 25.9957 11.7969Z" fill="url(#paint3_linear_138_11907)"/>
<path d="M7.39809 19.4359C7.25741 19.4359 7.11673 19.4359 6.97605 19.4359C5.95377 19.4359 5.93502 19.4359 6.09445 18.4745C6.46022 16.3768 7.36995 14.5151 8.8424 12.8981C8.9737 12.7583 9.03935 12.7146 9.19879 12.8632C9.73337 13.3789 10.2773 13.8771 10.8213 14.3753C10.9807 14.5238 10.962 14.62 10.8307 14.7686C9.724 16.0534 9.04873 17.513 8.87992 19.165C8.86116 19.366 8.77675 19.4447 8.55166 19.4359C8.1859 19.4272 7.79199 19.4359 7.39809 19.4359Z" fill="url(#paint4_linear_138_11907)"/>
<path d="M28.5749 19.436C28.1998 19.436 27.8246 19.4273 27.4495 19.436C27.2056 19.4447 27.1306 19.3573 27.1025 19.1388C26.9337 17.5044 26.2678 16.0622 25.1611 14.7861C25.011 14.6113 25.011 14.5152 25.1798 14.3578C25.7238 13.8771 26.249 13.3789 26.7742 12.8807C26.9055 12.7496 26.9899 12.7234 27.1306 12.8895C28.6593 14.6026 29.6441 16.5429 29.9161 18.7717C30.0005 19.4447 29.9817 19.4447 29.2689 19.4447C29.0439 19.436 28.8094 19.436 28.5749 19.436Z" fill="url(#paint5_linear_138_11907)"/>
<path d="M20.819 19.4534C20.0688 20.2401 19.3185 21.0442 18.5494 21.8133C18.2399 22.128 17.771 22.1017 17.4802 21.7958C17.2176 21.5249 17.2458 21.0704 17.6022 20.8868C18.6432 20.3624 19.7124 19.873 20.7628 19.3748C20.7815 19.401 20.8003 19.4272 20.819 19.4534Z" fill="url(#paint6_linear_138_11907)"/>
</g>
<defs>
<linearGradient id="paint0_linear_138_11907" x1="3.72973" y1="-2.48999e-07" x2="22.3784" y2="37.6216" gradientUnits="userSpaceOnUse">
<stop stop-color="#BBE897"/>
<stop offset="1" stop-color="#08CD87"/>
</linearGradient>
<linearGradient id="paint1_linear_138_11907" x1="8.48624" y1="12.87" x2="12.803" y2="28.7928" gradientUnits="userSpaceOnUse">
<stop stop-color="#BBE897"/>
<stop offset="1" stop-color="#08CD87"/>
</linearGradient>
<linearGradient id="paint2_linear_138_11907" x1="10.7619" y1="9.00256" x2="12.4519" y2="14.4408" gradientUnits="userSpaceOnUse">
<stop stop-color="#BBE897"/>
<stop offset="1" stop-color="#08CD87"/>
</linearGradient>
<linearGradient id="paint3_linear_138_11907" x1="19.4438" y1="9.00024" x2="21.1249" y2="14.4265" gradientUnits="userSpaceOnUse">
<stop stop-color="#BBE897"/>
<stop offset="1" stop-color="#08CD87"/>
</linearGradient>
<linearGradient id="paint4_linear_138_11907" x1="6.52967" y1="12.7705" x2="10.5479" y2="18.7469" gradientUnits="userSpaceOnUse">
<stop stop-color="#BBE897"/>
<stop offset="1" stop-color="#08CD87"/>
</linearGradient>
<linearGradient id="paint5_linear_138_11907" x1="25.5584" y1="12.7736" x2="29.5854" y2="18.7407" gradientUnits="userSpaceOnUse">
<stop stop-color="#BBE897"/>
<stop offset="1" stop-color="#08CD87"/>
</linearGradient>
<linearGradient id="paint6_linear_138_11907" x1="17.6697" y1="19.3748" x2="18.8109" y2="22.4125" gradientUnits="userSpaceOnUse">
<stop stop-color="#BBE897"/>
<stop offset="1" stop-color="#08CD87"/>
</linearGradient>
<clipPath id="clip0_138_11907">
<rect width="24" height="17" fill="white" transform="translate(6 9)"/>
</clipPath>
</defs>
</svg>
