<svg width="36" height="36" viewBox="0 0 36 36" fill="none" xmlns="http://www.w3.org/2000/svg">
<circle cx="18" cy="18" r="18" fill="url(#paint0_linear_138_11923)" fill-opacity="0.1"/>
<g clip-path="url(#clip0_138_11923)">
<path d="M26.1408 16.3815H26.1301C25.8455 16.3546 25.5609 16.3063 25.2763 16.2956C25.1259 16.2902 25.0561 16.2258 25.0078 16.0916C24.8628 15.7158 24.7017 15.3507 24.5513 14.975C24.4493 14.7226 24.2452 14.4435 24.2828 14.2126C24.3204 13.9764 24.5996 13.7778 24.7768 13.5631C24.8144 13.5201 24.8467 13.4718 24.8842 13.4289C25.2118 13.0531 25.1903 12.4894 24.8413 12.1351C24.5191 11.813 24.1969 11.4909 23.8747 11.1688C23.5257 10.8199 22.9726 10.793 22.5967 11.1098C22.3819 11.2869 22.1671 11.4641 21.9576 11.6466C21.8234 11.7593 21.716 11.7754 21.5066 11.652C21.0233 11.3674 20.5024 11.1688 19.96 11.0185C19.8204 10.9809 19.7237 10.8628 19.713 10.7179C19.6915 10.4333 19.6647 10.1435 19.6325 9.85894C19.5841 9.37579 19.176 9.00537 18.6874 9.00537H17.318C16.8294 9.00537 16.4212 9.37579 16.3729 9.85894C16.3461 10.1327 16.3192 10.4119 16.3031 10.6857C16.287 10.9272 16.1796 10.9917 15.9004 11.0668C15.4224 11.201 14.9606 11.3996 14.5257 11.6412C14.3055 11.7647 14.1874 11.7647 14.0316 11.6305C13.8329 11.4587 13.6342 11.2923 13.4409 11.1312C13.065 10.8199 12.5119 10.8467 12.1629 11.1903C11.8353 11.5124 11.5078 11.8345 11.1856 12.1619C10.8365 12.5055 10.8097 13.0638 11.1211 13.445C11.2876 13.649 11.4594 13.853 11.6313 14.057C11.7333 14.1751 11.7548 14.2663 11.6903 14.4113C11.4433 14.975 11.2232 15.5494 10.9708 16.113C10.9332 16.1936 10.8204 16.2795 10.7291 16.2902C10.4391 16.3278 10.1438 16.36 9.85382 16.3868C9.37053 16.4298 9 16.8378 9 17.3263V18.6898C9 19.1784 9.37053 19.5863 9.85382 19.6347C10.1384 19.6615 10.423 19.6883 10.713 19.7098C10.9063 19.7259 10.9654 19.8064 11.0298 20.0534C11.0835 20.2681 11.1533 20.4775 11.2339 20.6815C11.3574 20.558 11.4809 20.4399 11.599 20.3164C11.7279 20.1876 11.8622 20.0534 11.9911 19.9245C12.2649 19.6508 12.5442 19.3716 12.818 19.0925C12.5656 17.7396 12.8288 16.3492 13.5644 15.2058C14.3807 13.9442 15.7124 13.0907 17.2267 12.8652H17.2375C17.4523 12.833 17.6724 12.8169 17.8926 12.8169C18.1181 12.8169 18.3437 12.833 18.5692 12.8652C18.7894 12.8974 19.0525 12.9404 19.3156 13.0048C19.96 13.1658 20.4433 13.6168 20.6152 14.2073C20.6742 14.4166 20.6903 14.626 20.6689 14.8354C20.6527 14.9696 20.7011 15.1038 20.7924 15.1951C20.7977 15.2004 20.8031 15.2058 20.8085 15.2112C20.9051 15.3078 21.0394 15.3561 21.179 15.3454C21.2273 15.34 21.281 15.34 21.3294 15.34C21.4905 15.34 21.6516 15.3615 21.8126 15.4098C22.8007 15.6943 22.9994 16.6123 23.0638 16.9129C23.3968 18.4751 23.0263 20.0802 22.0382 21.3203C21.0609 22.5497 19.6002 23.269 18.0215 23.3012C18 23.3012 17.9785 23.3012 17.957 23.3012C17.5865 23.3012 17.2375 23.2475 16.9206 23.1778C16.4105 23.6931 15.8896 24.2138 15.3795 24.7238C15.6158 24.8205 15.852 24.9171 16.0883 25.0137C16.2387 25.0728 16.2816 25.1533 16.2924 25.309C16.3138 25.5881 16.3407 25.8673 16.3675 26.1411C16.4159 26.6296 16.824 27 17.3126 27H18.682C19.1706 27 19.5788 26.6296 19.6271 26.1464C19.6539 25.8565 19.6862 25.572 19.7076 25.2821C19.7184 25.1372 19.7721 25.0674 19.9063 25.0137C20.3789 24.8258 20.8622 24.654 21.3132 24.4232C21.6677 24.2407 21.9147 24.2836 22.1993 24.5628C22.3174 24.6809 22.4409 24.7883 22.5644 24.8903C22.9403 25.207 23.4988 25.1748 23.8425 24.8312C24.17 24.5037 24.4922 24.1816 24.8198 23.8542C25.1689 23.5052 25.1903 22.9523 24.8789 22.5765C24.7124 22.3725 24.5406 22.1685 24.3741 21.9591C24.315 21.884 24.2613 21.7444 24.2936 21.6639C24.5298 21.0573 24.7822 20.456 25.04 19.8601C25.0668 19.7957 25.1581 19.7313 25.2333 19.7206C25.4642 19.6883 25.6951 19.6776 25.926 19.6561C26.0012 19.6508 26.071 19.64 26.1462 19.6347C26.6295 19.5863 27 19.1784 27 18.6898V17.3263C27 16.8378 26.6295 16.4298 26.1408 16.3815Z" fill="url(#paint1_linear_138_11923)"/>
<path d="M21.8769 17.1706C21.8232 16.9183 21.7695 16.666 21.4795 16.5801C21.2003 16.4996 21.007 16.6553 20.819 16.8432C20.1961 17.4766 19.5678 18.1101 18.9288 18.7328C18.5583 19.0925 18.0374 19.1569 17.5917 18.9314C17.1729 18.7167 16.8775 18.2497 16.9849 17.7933C17.0547 17.482 17.2212 17.1599 17.436 16.929C18.0213 16.2902 18.6603 15.6943 19.2671 15.0716C19.6001 14.728 19.4873 14.3039 19.0255 14.1858C18.8161 14.1322 18.6066 14.0999 18.3918 14.0677C18.0696 14.0194 17.7367 14.0194 17.4145 14.0677H17.4091C14.9443 14.4328 13.4247 16.8271 14.1066 19.2428C14.1389 19.3502 14.0905 19.5327 14.01 19.6132C13.5052 20.1447 12.9789 20.6547 12.4581 21.1754C11.5667 22.0665 10.6699 22.9416 9.79458 23.8435C8.8978 24.7668 9.16093 26.2216 10.2994 26.6457C11.0189 26.9141 11.6472 26.7316 12.1896 26.1894C13.5643 24.8098 14.9497 23.4355 16.319 22.0504C16.4909 21.8786 16.6359 21.8518 16.8668 21.9055C17.2427 21.9967 17.6293 22.0773 18.0106 22.0719C20.5613 22.0397 22.4139 19.6723 21.8769 17.1706Z" fill="url(#paint2_linear_138_11923)"/>
</g>
<defs>
<linearGradient id="paint0_linear_138_11923" x1="3.72973" y1="-2.48999e-07" x2="22.3784" y2="37.6216" gradientUnits="userSpaceOnUse">
<stop stop-color="#FEB49C"/>
<stop offset="1" stop-color="#FD6B87"/>
</linearGradient>
<linearGradient id="paint1_linear_138_11923" x1="10.8649" y1="9.00537" x2="20.1847" y2="27.8128" gradientUnits="userSpaceOnUse">
<stop stop-color="#FEB49C"/>
<stop offset="1" stop-color="#FD6B87"/>
</linearGradient>
<linearGradient id="paint2_linear_138_11923" x1="10.574" y1="14.0315" x2="17.1791" y2="27.3321" gradientUnits="userSpaceOnUse">
<stop stop-color="#FEB49C"/>
<stop offset="1" stop-color="#FD6B87"/>
</linearGradient>
<clipPath id="clip0_138_11923">
<rect width="18" height="18" fill="white" transform="translate(9 9)"/>
</clipPath>
</defs>
</svg>
