<svg width="36" height="36" viewBox="0 0 36 36" fill="none" xmlns="http://www.w3.org/2000/svg">
<circle cx="18" cy="18" r="18" fill="url(#paint0_linear_138_11960)" fill-opacity="0.1"/>
<g clip-path="url(#clip0_138_11960)">
<path d="M26.4421 20.1639C26.4421 21.9221 26.4421 23.6804 26.4421 25.4387C26.4421 25.8654 26.2452 26.067 25.8232 26.067C25.284 26.067 24.7448 26.067 24.2056 26.067C23.8165 26.067 23.6102 25.8607 23.6055 25.4715C23.6055 21.9315 23.6055 18.3915 23.6055 14.8515C23.6055 14.453 23.8165 14.2467 24.215 14.2467C24.7542 14.2467 25.2934 14.2467 25.8326 14.2467C26.2265 14.2467 26.4375 14.4577 26.4375 14.8562C26.4421 16.6239 26.4421 18.3915 26.4421 20.1639Z" fill="url(#paint1_linear_138_11960)"/>
<path d="M20.3558 15.93C19.765 15.93 19.2727 15.5033 19.1977 14.9172C19.1883 14.8234 19.1508 14.7906 19.0664 14.7625C18.274 14.4858 17.4816 14.2045 16.6845 13.9326C16.6282 13.9138 16.5392 13.9326 16.4923 13.9701C16.1172 14.2936 15.7046 14.3874 15.2357 14.2045C15.1513 14.1717 15.1044 14.1858 15.0388 14.242C13.9979 15.1563 12.9476 16.0706 11.9067 16.9896C11.8645 17.0271 11.8504 17.1209 11.8598 17.1818C11.9489 17.6695 11.8223 18.0821 11.4285 18.3822C11.0393 18.6776 10.6079 18.7151 10.1766 18.4806C9.7452 18.2509 9.5389 17.8711 9.56234 17.3788C9.59516 16.6051 10.3969 16.0847 11.1331 16.3613C11.2409 16.4035 11.3065 16.3895 11.3909 16.3144C12.4131 15.4142 13.4352 14.5233 14.4574 13.6278C14.5324 13.5622 14.5746 13.5059 14.5465 13.3934C14.387 12.7369 14.7996 12.0946 15.442 11.9727C16.1125 11.8601 16.7361 12.2868 16.8299 12.9526C16.8486 13.0652 16.8908 13.1073 16.9893 13.1402C17.7629 13.4074 18.5319 13.6747 19.3055 13.9513C19.4087 13.9888 19.4743 13.9888 19.5681 13.9044C19.9244 13.5809 20.3417 13.5153 20.7918 13.6794C20.8809 13.7122 20.9325 13.7122 21.0075 13.6466C21.9453 12.8401 22.8877 12.0383 23.8301 11.2412C23.9004 11.1803 23.9145 11.1287 23.8958 11.0302C23.741 10.3504 24.1771 9.72209 24.8804 9.60956C25.5134 9.50641 26.1276 9.99404 26.1979 10.6551C26.2683 11.3163 25.7431 11.9164 25.0633 11.9305C24.8991 11.9352 24.735 11.8648 24.5662 11.8414C24.5147 11.832 24.4397 11.8367 24.4021 11.8648C23.4503 12.6713 22.5032 13.4824 21.5561 14.2983C21.5092 14.3358 21.4858 14.4389 21.4998 14.5046C21.6452 15.2501 21.106 15.9253 20.3558 15.93Z" fill="url(#paint2_linear_138_11960)"/>
<path d="M17.0927 21.6361C17.0927 22.9724 17.0927 24.3087 17.0927 25.6403C17.0927 26.0951 16.9005 26.2873 16.4363 26.2873C15.9159 26.2873 15.3954 26.2873 14.8703 26.2873C14.467 26.2873 14.2607 26.081 14.2607 25.6825C14.2607 22.9865 14.2607 20.2951 14.2607 17.5991C14.2607 17.2053 14.4624 17.0037 14.8515 17.0037C15.4001 17.0037 15.9534 17.0037 16.502 17.0037C16.8817 17.0037 17.0834 17.21 17.0834 17.5944C17.0927 18.9448 17.0927 20.2905 17.0927 21.6361Z" fill="url(#paint3_linear_138_11960)"/>
<path d="M21.7675 22.3676C21.7675 23.4319 21.7675 24.501 21.7675 25.5653C21.7675 25.9685 21.5659 26.1701 21.1627 26.1748C20.6188 26.1795 20.0749 26.1795 19.5263 26.1748C19.1465 26.1748 18.9355 25.9638 18.9355 25.5887C18.9355 23.4366 18.9355 21.2892 18.9355 19.1371C18.9355 18.7573 19.1419 18.551 19.5216 18.551C20.0702 18.551 20.6235 18.551 21.1721 18.551C21.5612 18.551 21.7582 18.7573 21.7628 19.1511C21.7675 20.2248 21.7675 21.2986 21.7675 22.3676Z" fill="url(#paint4_linear_138_11960)"/>
<path d="M9.59551 23.9805C9.59551 23.3663 9.59551 22.7521 9.59551 22.1378C9.59551 21.7581 9.80181 21.5518 10.1769 21.5518C10.7349 21.5518 11.2881 21.5518 11.8461 21.5518C12.2071 21.5518 12.4181 21.7581 12.4181 22.1144C12.4228 23.3569 12.4228 24.5994 12.4181 25.8372C12.4181 26.1889 12.1977 26.3999 11.8414 26.4046C11.2834 26.4093 10.7302 26.4093 10.1722 26.4046C9.80181 26.4046 9.59082 26.1889 9.59082 25.8091C9.59082 25.1949 9.59551 24.59 9.59551 23.9805Z" fill="url(#paint5_linear_138_11960)"/>
</g>
<defs>
<linearGradient id="paint0_linear_138_11960" x1="7.875" y1="32.6293" x2="29.2535" y2="4.50328" gradientUnits="userSpaceOnUse">
<stop stop-color="#FEC73A"/>
<stop offset="1" stop-color="#FFA825"/>
</linearGradient>
<linearGradient id="paint1_linear_138_11960" x1="24.226" y1="24.9602" x2="28.4093" y2="23.6395" gradientUnits="userSpaceOnUse">
<stop stop-color="#FEC73A"/>
<stop offset="1" stop-color="#FFA825"/>
</linearGradient>
<linearGradient id="paint2_linear_138_11960" x1="13.2014" y1="17.7871" x2="17.1301" y2="8.2684" gradientUnits="userSpaceOnUse">
<stop stop-color="#FEC73A"/>
<stop offset="1" stop-color="#FFA825"/>
</linearGradient>
<linearGradient id="paint3_linear_138_11960" x1="14.8802" y1="25.4181" x2="18.8358" y2="23.8306" gradientUnits="userSpaceOnUse">
<stop stop-color="#FEC73A"/>
<stop offset="1" stop-color="#FFA825"/>
</linearGradient>
<linearGradient id="paint4_linear_138_11960" x1="19.555" y1="25.4642" x2="23.263" y2="23.6529" gradientUnits="userSpaceOnUse">
<stop stop-color="#FEC73A"/>
<stop offset="1" stop-color="#FFA825"/>
</linearGradient>
<linearGradient id="paint5_linear_138_11960" x1="10.2101" y1="25.9534" x2="13.1008" y2="23.7366" gradientUnits="userSpaceOnUse">
<stop stop-color="#FEC73A"/>
<stop offset="1" stop-color="#FFA825"/>
</linearGradient>
<clipPath id="clip0_138_11960">
<rect width="18" height="18" fill="white" transform="translate(9 9)"/>
</clipPath>
</defs>
</svg>
