<svg width="36" height="36" viewBox="0 0 36 36" fill="none" xmlns="http://www.w3.org/2000/svg">
<circle cx="18" cy="18" r="18" fill="url(#paint0_linear_138_12120)" fill-opacity="0.1"/>
<path d="M9 21.8672C9 17.5781 9 13.2891 9 9C15 9 21 9 27 9C27 13.2891 27 17.5781 27 21.8672C26.9484 21.8672 26.8969 21.8625 26.8406 21.8625C20.9438 21.8625 15.0516 21.8625 9.15469 21.8625C9.10312 21.8625 9.05156 21.8672 9 21.8672ZM15.45 18.9516C15.2391 18.5813 15.0563 18.1828 14.8078 17.8359C13.7625 16.3734 11.8031 16.3172 10.6781 17.7094C10.0125 18.5344 9.74063 19.5141 9.64688 20.55C9.63281 20.7234 9.75938 20.8641 9.91875 20.8828C10.0969 20.9062 10.2328 20.8078 10.2797 20.625C10.2937 20.5688 10.2937 20.5078 10.3031 20.4516C10.4109 19.6687 10.6078 18.9141 11.0672 18.2531C11.6203 17.4516 12.5203 17.1469 13.3734 17.475C13.9594 17.7 14.325 18.1594 14.5922 18.7031C14.8875 19.2984 15.0328 19.9312 15.1125 20.5875C15.1359 20.7844 15.2578 20.8875 15.4359 20.8875C15.6094 20.8828 15.7266 20.7656 15.7547 20.5781C15.7875 20.3531 15.8156 20.1234 15.8625 19.9031C16.0172 19.2141 16.2422 18.5531 16.7297 18.0141C17.2125 17.475 17.8219 17.2688 18.5344 17.4C19.2141 17.5219 19.6453 17.9672 19.9688 18.5391C20.3203 19.1672 20.4891 19.8516 20.5734 20.5594C20.5969 20.7609 20.7 20.8781 20.8687 20.8922C21.0562 20.9062 21.1734 20.8078 21.2156 20.5969C21.2578 20.3859 21.2906 20.1703 21.3469 19.9641C21.5344 19.2516 21.7969 18.5719 22.3125 18.0234C22.6359 17.6766 23.025 17.4516 23.5031 17.3906C23.8828 18.1547 24.4031 18.45 25.0734 18.2906C25.6406 18.15 26.0578 17.6062 26.0438 17.025C26.025 16.4156 25.5984 15.9047 25.0125 15.7922C24.3375 15.6609 23.8219 15.9797 23.4938 16.7391C22.8609 16.8047 22.3266 17.0813 21.8812 17.5359C21.45 17.9813 21.1641 18.5156 20.9344 19.1156C20.9016 19.0359 20.8828 18.9797 20.8594 18.9328C20.6812 18.5859 20.5312 18.2203 20.3156 17.8969C19.6031 16.8516 18.3891 16.4578 17.2641 16.8891C16.5141 17.175 16.0453 17.7516 15.6938 18.4406C15.5906 18.6094 15.5156 18.7969 15.45 18.9516ZM16.3922 13.1812C16.3922 13.6453 16.3875 14.1047 16.3922 14.5688C16.3969 14.9203 16.5563 15.1922 16.875 15.3469C17.1844 15.4969 17.475 15.4359 17.7469 15.2344C18.3375 14.7937 18.9328 14.3578 19.5234 13.9219C20.0672 13.5141 20.0719 12.8531 19.5281 12.4453C18.9375 12.0047 18.3469 11.5687 17.7516 11.1328C17.6625 11.0672 17.5641 11.0109 17.4609 10.9734C16.9266 10.8 16.4016 11.2031 16.3922 11.7984C16.3828 12.2578 16.3875 12.7219 16.3922 13.1812Z" fill="url(#paint1_linear_138_12120)"/>
<path d="M27.0002 23.5547C26.9158 23.7375 26.7658 23.7891 26.5736 23.7891C20.8596 23.7891 15.1455 23.7891 9.43145 23.7891C9.24863 23.7891 9.1127 23.7235 9.00488 23.5875C9.00488 23.2219 9.00488 22.861 9.00488 22.4954C15.0049 22.4954 21.0049 22.4954 27.0049 22.4954C27.0002 22.8516 27.0002 23.2032 27.0002 23.5547Z" fill="url(#paint2_linear_138_12120)"/>
<path d="M13.078 27C12.9562 26.9156 12.8437 26.8266 12.8624 26.6531C12.8812 26.4938 12.9655 26.3953 13.1249 26.3672C13.1812 26.3578 13.2421 26.3625 13.2983 26.3625C16.4296 26.3625 19.5655 26.3625 22.6968 26.3625C22.7437 26.3625 22.7905 26.3625 22.8374 26.3625C22.9827 26.3672 23.0812 26.4516 23.1233 26.5828C23.1655 26.7141 23.128 26.8406 23.0155 26.9297C22.9827 26.9531 22.9499 26.9766 22.9218 27C19.6405 27 16.3593 27 13.078 27Z" fill="url(#paint3_linear_138_12120)"/>
<path d="M21.009 25.7015C18.9887 25.7015 17.0012 25.7015 14.9902 25.7015C15.2012 25.2843 15.398 24.8812 15.6043 24.4875C15.623 24.4546 15.6887 24.4359 15.7309 24.4359C17.2402 24.4312 18.7496 24.4312 20.259 24.4359C20.3059 24.4359 20.3809 24.464 20.3996 24.4968C20.6059 24.8859 20.798 25.2843 21.009 25.7015Z" fill="url(#paint4_linear_138_12120)"/>
<path d="M25.3871 17.0297C25.3871 17.3906 25.1012 17.6813 24.7449 17.6813C24.3934 17.6813 24.1121 17.3953 24.1074 17.0438C24.1074 16.6828 24.3934 16.3922 24.7496 16.3922C25.1012 16.3922 25.3871 16.6781 25.3871 17.0297Z" fill="url(#paint5_linear_138_12120)"/>
<path d="M17.0344 13.186C17.0344 12.7407 17.0297 12.2954 17.0391 11.8501C17.0391 11.7657 17.0859 11.6485 17.1516 11.6063C17.1984 11.5735 17.325 11.6251 17.3906 11.6719C17.9719 12.0938 18.5484 12.5251 19.1297 12.9516C19.3359 13.1063 19.3359 13.2563 19.125 13.411C18.5438 13.8422 17.9625 14.2735 17.3719 14.7001C17.3109 14.7422 17.1984 14.7797 17.1422 14.7516C17.0859 14.7235 17.0391 14.611 17.0391 14.536C17.0297 14.086 17.0344 13.636 17.0344 13.186Z" fill="url(#paint6_linear_138_12120)"/>
<defs>
<linearGradient id="paint0_linear_138_12120" x1="4.21622" y1="7.37591e-07" x2="30.973" y2="36" gradientUnits="userSpaceOnUse">
<stop stop-color="#86CEFF"/>
<stop offset="1" stop-color="#1699F0"/>
</linearGradient>
<linearGradient id="paint1_linear_138_12120" x1="11.1081" y1="9" x2="19.3846" y2="24.5778" gradientUnits="userSpaceOnUse">
<stop stop-color="#86CEFF"/>
<stop offset="1" stop-color="#1699F0"/>
</linearGradient>
<linearGradient id="paint2_linear_138_12120" x1="11.113" y1="22.4954" x2="11.22" y2="24.4981" gradientUnits="userSpaceOnUse">
<stop stop-color="#86CEFF"/>
<stop offset="1" stop-color="#1699F0"/>
</linearGradient>
<linearGradient id="paint3_linear_138_12120" x1="14.0643" y1="26.3613" x2="14.11" y2="27.3507" gradientUnits="userSpaceOnUse">
<stop stop-color="#86CEFF"/>
<stop offset="1" stop-color="#1699F0"/>
</linearGradient>
<linearGradient id="paint4_linear_138_12120" x1="15.6951" y1="24.4324" x2="15.9965" y2="26.3554" gradientUnits="userSpaceOnUse">
<stop stop-color="#86CEFF"/>
<stop offset="1" stop-color="#1699F0"/>
</linearGradient>
<linearGradient id="paint5_linear_138_12120" x1="24.2573" y1="16.3922" x2="25.2174" y2="17.6746" gradientUnits="userSpaceOnUse">
<stop stop-color="#86CEFF"/>
<stop offset="1" stop-color="#1699F0"/>
</linearGradient>
<linearGradient id="paint6_linear_138_12120" x1="17.2968" y1="11.5959" x2="19.7514" y2="13.944" gradientUnits="userSpaceOnUse">
<stop stop-color="#86CEFF"/>
<stop offset="1" stop-color="#1699F0"/>
</linearGradient>
</defs>
</svg>
