<svg width="36" height="36" viewBox="0 0 36 36" fill="none" xmlns="http://www.w3.org/2000/svg">
<circle cx="18" cy="18" r="18" fill="url(#paint0_linear_138_12182)" fill-opacity="0.1"/>
<path d="M17.6712 19.1116C17.6712 16.3401 19.9265 14.0833 22.696 14.0833C24.3991 14.0833 25.9082 14.9396 26.8188 16.2389C26.8061 16.1714 26.7935 16.1039 26.7766 16.0364C25.7185 11.2148 20.9298 8.05937 15.8754 9.25319C12.0056 10.1686 8.99159 13.7374 9.00002 17.9811C9.02109 18.3397 9.04217 18.6982 9.06746 19.0526C9.08011 19.2213 9.11383 19.3858 9.14334 19.5504C9.73351 22.6593 11.4745 24.8824 14.3284 26.2112C15.926 26.9579 17.6206 27.1351 19.3658 26.8946C20.2384 26.7723 20.9803 26.4222 21.4946 25.6839C21.8445 25.1819 22.0131 24.6462 22.0173 24.0894C19.564 23.7603 17.6712 21.6511 17.6712 19.1116ZM18.8895 11.2485C19.6398 11.2443 20.2426 11.8433 20.2426 12.5942C20.2426 13.3451 19.6483 13.9483 18.9021 13.9525C18.1644 13.9525 17.5447 13.3324 17.549 12.5984C17.5532 11.8644 18.1644 11.2527 18.8895 11.2485ZM12.6127 20.2422C11.8623 20.2464 11.2595 19.6474 11.2595 18.9007C11.2595 18.1625 11.8792 17.5424 12.6127 17.5466C13.3419 17.5508 13.9532 18.1625 13.9574 18.8881C13.9574 19.6389 13.363 20.2422 12.6127 20.2422ZM12.6042 14.4208C12.5958 13.421 13.4052 12.6026 14.4 12.6026C15.3949 12.6026 16.1916 13.3999 16.1958 14.3954C16.2 15.3952 15.4159 16.1925 14.4169 16.1967C13.422 16.2009 12.6127 15.4079 12.6042 14.4208ZM16.2 24.2919C15.201 24.2919 14.4127 23.4988 14.4127 22.499C14.4127 21.5035 15.2094 20.6978 16.2 20.6978C17.1949 20.6978 18.0084 21.5119 18.0042 22.5075C17.9958 23.503 17.1949 24.2961 16.2 24.2919Z" fill="url(#paint1_linear_138_12182)"/>
<path d="M22.6879 18.1161C22.1483 18.1203 21.7015 18.5675 21.6973 19.1032C21.6931 19.6516 22.1441 20.1072 22.6921 20.1072C23.2402 20.1072 23.687 19.6601 23.6912 19.1159C23.6912 18.5675 23.2359 18.1119 22.6879 18.1161Z" fill="url(#paint2_linear_138_12182)"/>
<path d="M22.6959 14.8004C20.3184 14.8004 18.3877 16.7325 18.3877 19.1116C18.3877 21.4908 20.3184 23.4229 22.6959 23.4229C25.0734 23.4229 27.0041 21.4908 27.0041 19.1116C27.0041 16.7325 25.0734 14.8004 22.6959 14.8004ZM25.0355 19.9764C25.0017 20.0566 24.9638 20.1409 24.9301 20.2253C24.8458 20.4236 24.6181 20.5122 24.42 20.4278C24.361 20.4025 24.302 20.3772 24.243 20.3476C24.1418 20.3012 24.0828 20.3308 23.9858 20.432C23.8973 20.5206 23.8003 20.605 23.695 20.6682C23.4884 20.799 23.4125 20.8074 23.4294 20.934C23.442 21.0057 23.4505 21.0774 23.4589 21.1491C23.4842 21.3601 23.3324 21.5499 23.1217 21.5752C23.0331 21.5879 22.9446 21.5963 22.8519 21.6089C22.6411 21.6343 22.4472 21.4824 22.4219 21.2715C22.4135 21.204 22.405 21.1323 22.4008 21.0648C22.3924 20.9762 22.3544 20.9424 22.2533 20.9129C22.072 20.8623 21.8992 20.7906 21.739 20.6935C21.621 20.6261 21.5619 20.605 21.4776 20.6725C21.427 20.7146 21.3722 20.7568 21.3174 20.7948C21.1446 20.9213 20.9043 20.8876 20.7779 20.7189C20.7231 20.6471 20.6683 20.5754 20.6177 20.5037C20.4912 20.3308 20.5249 20.0903 20.6978 19.9638C20.7484 19.9258 20.7989 19.8878 20.8495 19.8541C20.917 19.8077 20.9465 19.7613 20.9296 19.6643C20.8875 19.4533 20.8706 19.234 20.858 19.0188C20.8537 18.926 20.8242 18.8754 20.7315 18.8417C20.6725 18.8206 20.6135 18.7953 20.5587 18.7699C20.3647 18.6856 20.272 18.4578 20.3563 18.2637C20.39 18.1794 20.428 18.0992 20.4617 18.0149C20.546 17.8208 20.7694 17.728 20.9676 17.8124C21.035 17.8419 21.1067 17.8714 21.1741 17.8967C21.2121 17.9136 21.2795 17.9052 21.3132 17.8841C21.5156 17.7449 21.7095 17.593 21.9076 17.4496C21.9624 17.4116 21.9708 17.3694 21.9624 17.3062C21.954 17.2387 21.9455 17.1669 21.9371 17.0995C21.9118 16.8885 22.0636 16.6945 22.2743 16.6692C22.3629 16.6607 22.4514 16.6481 22.5399 16.6396C22.7507 16.6143 22.9446 16.7662 22.9699 16.9771C22.9783 17.0404 22.9825 17.1079 22.991 17.1712C22.9994 17.2513 23.0247 17.2893 23.1006 17.3188C23.3198 17.4074 23.5348 17.5086 23.7582 17.5972C23.8003 17.6141 23.8678 17.6057 23.9057 17.5804C23.9647 17.5382 24.0238 17.496 24.0828 17.4538C24.2556 17.3272 24.4959 17.361 24.6224 17.534C24.6772 17.6057 24.7277 17.6774 24.7825 17.7491C24.9132 17.922 24.8753 18.1667 24.6982 18.2933C24.6561 18.3228 24.6181 18.3523 24.576 18.3776C24.4748 18.4451 24.4495 18.5211 24.479 18.6476C24.5254 18.8459 24.5507 19.0484 24.5549 19.2508C24.5549 19.3352 24.5802 19.369 24.6434 19.3985C24.7109 19.428 24.7783 19.4533 24.8458 19.4829C25.027 19.5546 25.1198 19.7824 25.0355 19.9764Z" fill="url(#paint3_linear_138_12182)"/>
<defs>
<linearGradient id="paint0_linear_138_12182" x1="7.875" y1="32.6293" x2="29.2535" y2="4.50328" gradientUnits="userSpaceOnUse">
<stop stop-color="#FEC73A"/>
<stop offset="1" stop-color="#FFA825"/>
</linearGradient>
<linearGradient id="paint1_linear_138_12182" x1="12.8979" y1="25.3102" x2="23.6119" y2="11.3527" gradientUnits="userSpaceOnUse">
<stop stop-color="#FEC73A"/>
<stop offset="1" stop-color="#FFA825"/>
</linearGradient>
<linearGradient id="paint2_linear_138_12182" x1="22.1334" y1="19.9208" x2="23.3154" y2="18.3636" gradientUnits="userSpaceOnUse">
<stop stop-color="#FEC73A"/>
<stop offset="1" stop-color="#FFA825"/>
</linearGradient>
<linearGradient id="paint3_linear_138_12182" x1="20.2725" y1="22.6155" x2="25.3939" y2="15.8825" gradientUnits="userSpaceOnUse">
<stop stop-color="#FEC73A"/>
<stop offset="1" stop-color="#FFA825"/>
</linearGradient>
</defs>
</svg>
