<svg width="36" height="36" viewBox="0 0 36 36" fill="none" xmlns="http://www.w3.org/2000/svg">
<circle cx="18" cy="18" r="18" fill="url(#paint0_linear_138_12035)" fill-opacity="0.1"/>
<g clip-path="url(#clip0_138_12035)">
<path d="M23.9922 9C25.6459 9.00014 26.9999 10.3541 27 12.0078V23.9922C26.9999 25.6459 25.6459 26.9999 23.9922 27H12.0078C10.3541 26.9999 9.00014 25.6459 9 23.9922V12.0078C9.00014 10.3541 10.3541 9.00014 12.0078 9H23.9922ZM20.3262 12.8594C20.2053 12.8497 20.1035 12.9416 20.1035 13.0625V13.957C20.1035 14.0633 20.1858 14.1503 20.292 14.1553L20.5635 14.1699C20.9985 14.1942 21.1535 14.3539 21.1729 14.7891C21.197 15.3548 21.2114 15.9206 21.2598 16.4863C21.2985 16.9505 21.4479 17.386 21.8105 17.71C21.8589 17.7535 21.9077 17.7924 21.9609 17.8359C22.0622 17.9134 22.0624 18.0682 21.9609 18.1455C21.492 18.5033 21.2984 19.0107 21.2549 19.6006C21.2162 20.1324 21.197 20.6644 21.1729 21.1963C21.1535 21.6025 20.998 21.7719 20.5918 21.8105C20.4904 21.8202 20.3934 21.8253 20.292 21.835C20.1858 21.84 20.1035 21.9318 20.1035 22.0381V22.9229C20.1035 23.0389 20.2004 23.1308 20.3164 23.126C20.5822 23.1163 20.8336 23.1071 21.085 23.0781C22.0473 22.9572 22.4684 22.5121 22.5361 21.5449C22.5748 20.9598 22.5698 20.3742 22.6182 19.7891C22.6714 19.1122 22.9525 18.6677 23.6826 18.6436C23.697 18.6435 23.7066 18.6336 23.7305 18.624V17.5312C23.7305 17.4345 23.6582 17.3524 23.5615 17.3379C23.5422 17.3379 23.5272 17.333 23.5127 17.333C23.1937 17.2846 22.9137 17.1628 22.7832 16.8486C22.701 16.6552 22.6327 16.4471 22.6182 16.2393C22.5747 15.6204 22.5699 15.0016 22.5312 14.3828C22.4926 13.6961 22.1828 13.178 21.4961 13.0039C21.119 12.9073 20.7274 12.8932 20.3262 12.8594ZM15.6787 12.8691C15.316 12.8933 14.9625 12.9031 14.6191 12.9805C13.986 13.116 13.5321 13.6716 13.498 14.3193C13.4642 14.948 13.4488 15.5774 13.4102 16.2061C13.3762 16.7476 13.1249 17.3185 12.4189 17.333C12.3754 17.338 12.293 17.391 12.293 17.4248C12.2881 17.7632 12.2881 18.102 12.2881 18.4404C12.2883 18.5467 12.3713 18.6379 12.4775 18.6572C13.0141 18.7491 13.2269 18.9581 13.3623 19.4609C13.3912 19.5622 13.4102 19.6732 13.415 19.7793C13.4586 20.4805 13.4829 21.1776 13.5361 21.874C13.5652 22.2414 13.7588 22.5412 14.0537 22.7588C14.5518 23.1263 15.1227 23.1114 15.6934 23.1211C15.8189 23.1258 15.9256 23.02 15.9258 22.8945V22.0625C15.9258 21.9465 15.8336 21.8448 15.7129 21.835C15.6162 21.8253 15.5186 21.8202 15.4219 21.8057C15.021 21.7572 14.8759 21.5835 14.8564 21.1777C14.8323 20.6313 14.8179 20.0845 14.7695 19.543C14.726 19.045 14.5761 18.5806 14.1797 18.2324C14.1507 18.2083 14.1266 18.1882 14.0977 18.1641C13.9816 18.077 13.9864 17.9083 14.0977 17.8164C14.5811 17.4344 14.7552 16.8973 14.7842 16.2832C14.8084 15.7852 14.8371 15.2871 14.8564 14.7891C14.871 14.3635 15.0355 14.1941 15.4658 14.1699L15.7129 14.1553C15.8288 14.1502 15.9209 14.0486 15.9209 13.9326V13.0957C15.9206 12.9654 15.8091 12.8595 15.6787 12.8691ZM18.5859 14.4502C18.4118 14.4018 18.3443 14.4556 18.3008 14.6104C18.1751 15.0794 18.0387 15.5535 17.9033 16.0225C17.4246 17.7004 16.9513 19.3787 16.4678 21.0566C16.4194 21.2162 16.4288 21.2982 16.6367 21.332C16.8882 21.3707 17.1351 21.4334 17.3721 21.5156C17.5847 21.5881 17.6519 21.5254 17.7051 21.332C18.0629 20.0361 18.4411 18.7403 18.8086 17.4443C19.0552 16.5738 19.2963 15.7024 19.543 14.8223C19.6103 14.6873 19.4759 14.6871 19.4033 14.6631C19.1326 14.5906 18.8567 14.5324 18.5859 14.4502Z" fill="url(#paint1_linear_138_12035)"/>
</g>
<defs>
<linearGradient id="paint0_linear_138_12035" x1="4.21622" y1="7.37591e-07" x2="30.973" y2="36" gradientUnits="userSpaceOnUse">
<stop stop-color="#86CEFF"/>
<stop offset="1" stop-color="#1699F0"/>
</linearGradient>
<linearGradient id="paint1_linear_138_12035" x1="11.1081" y1="9" x2="24.4865" y2="27" gradientUnits="userSpaceOnUse">
<stop stop-color="#86CEFF"/>
<stop offset="1" stop-color="#1699F0"/>
</linearGradient>
<clipPath id="clip0_138_12035">
<rect width="18" height="18" fill="white" transform="translate(9 9)"/>
</clipPath>
</defs>
</svg>
