<svg width="36" height="36" viewBox="0 0 36 36" fill="none" xmlns="http://www.w3.org/2000/svg">
<circle cx="18" cy="18" r="18" fill="url(#paint0_linear_138_11994)" fill-opacity="0.1"/>
<g clip-path="url(#clip0_138_11994)">
<path d="M23.3889 10.4906C23.5294 10.4906 23.6629 10.4906 23.8104 10.4906C23.6067 9.67499 22.7284 9.00702 21.8291 9.00702C18.2671 8.99999 14.7121 8.99296 11.15 9.00702C10.0188 9.01405 9.01416 10.0266 9.00714 11.1586C8.99308 14.7234 9.00011 18.2812 9.00714 21.8461C9.00714 22.725 9.61135 23.5266 10.4896 23.843C10.4896 23.6742 10.4896 23.5336 10.4896 23.393C10.4896 20.4047 10.4825 17.4164 10.4966 14.4281C10.4966 13.943 10.5739 13.4437 10.7284 12.9867C11.2484 11.4539 12.6605 10.5047 14.3537 10.4976C17.3678 10.4906 20.3748 10.4906 23.3889 10.4906Z" fill="url(#paint1_linear_138_11994)"/>
<path d="M18.2809 18.2882C17.6977 18.8648 17.5994 19.8351 18.0841 20.4538C18.2106 20.3132 18.3511 20.1867 18.4635 20.039C18.5057 19.9898 18.5268 19.8984 18.5127 19.8351C18.3933 19.4343 18.4706 19.0757 18.7656 18.7804C19.0607 18.4851 19.419 18.4078 19.8195 18.5343C19.8687 18.5484 19.953 18.5484 19.9951 18.5132C20.1497 18.3867 20.2902 18.246 20.4378 18.1054C19.8265 17.6203 18.864 17.7187 18.2809 18.2882Z" fill="url(#paint2_linear_138_11994)"/>
<path d="M27.0004 14.4211C27.0144 13.1414 26.0449 11.9813 24.5765 12.0024C21.1901 12.0446 17.8107 12.0446 14.4243 12.0024C13.0683 11.9813 11.9512 13.043 11.9933 14.4493C12.0495 16.1368 12.0074 17.8243 12.0074 19.5118C12.0074 21.2344 12.0004 22.9571 12.0074 24.6797C12.0144 26.0579 12.9769 27.0071 14.361 27.0071C17.7826 27.0071 21.1971 27.0071 24.6186 27.0071C26.0308 27.0071 26.9863 26.0438 26.9863 24.6164C26.9863 21.2133 26.9652 17.8172 27.0004 14.4211ZM16.4196 22.0993C16.6233 21.9094 16.8411 21.7196 17.0308 21.5508C16.6303 21.136 16.258 20.7704 15.9207 20.3836C15.731 20.1657 15.5905 19.8985 15.443 19.6454C15.4008 19.575 15.4008 19.4625 15.443 19.3922C16.1666 18.0704 17.2135 17.1493 18.724 16.8469C19.5601 16.6782 20.3751 16.7766 21.1549 17.1282C21.2884 17.1914 21.3657 17.1704 21.4641 17.0649C21.5132 17.0157 21.5624 16.9594 21.6116 16.9102C21.8575 16.6571 22.258 16.6641 22.4969 16.9243C20.7896 18.6329 19.0542 20.3696 17.2978 22.1204C17.0519 22.3524 16.6584 22.3454 16.4196 22.0993ZM23.5437 19.6313C22.813 20.9602 21.7662 21.8743 20.2486 22.1907C19.6866 22.3102 18.8716 22.268 18.3727 22.0852C18.6608 21.7969 18.9348 21.5297 19.2088 21.2625C19.2439 21.2274 19.3142 21.2204 19.3704 21.2204C20.3821 21.3188 21.3095 20.3977 21.2041 19.3993C21.1971 19.343 21.2111 19.2586 21.2463 19.2235C21.6467 18.8086 22.0542 18.4079 22.4758 17.986C22.9325 18.4149 23.2908 18.9 23.5718 19.4485C23.5929 19.4907 23.5718 19.575 23.5437 19.6313Z" fill="url(#paint3_linear_138_11994)"/>
</g>
<defs>
<linearGradient id="paint0_linear_138_11994" x1="4.21622" y1="7.37591e-07" x2="30.973" y2="36" gradientUnits="userSpaceOnUse">
<stop stop-color="#86CEFF"/>
<stop offset="1" stop-color="#1699F0"/>
</linearGradient>
<linearGradient id="paint1_linear_138_11994" x1="10.7337" y1="8.9989" x2="21.7734" y2="23.8197" gradientUnits="userSpaceOnUse">
<stop stop-color="#86CEFF"/>
<stop offset="1" stop-color="#1699F0"/>
</linearGradient>
<linearGradient id="paint2_linear_138_11994" x1="18.0863" y1="17.7943" x2="20.0622" y2="20.4566" gradientUnits="userSpaceOnUse">
<stop stop-color="#86CEFF"/>
<stop offset="1" stop-color="#1699F0"/>
</linearGradient>
<linearGradient id="paint3_linear_138_11994" x1="13.7499" y1="12.0021" x2="24.9016" y2="27.0094" gradientUnits="userSpaceOnUse">
<stop stop-color="#86CEFF"/>
<stop offset="1" stop-color="#1699F0"/>
</linearGradient>
<clipPath id="clip0_138_11994">
<rect width="18" height="18" fill="white" transform="translate(9 9)"/>
</clipPath>
</defs>
</svg>
