<svg width="36" height="36" viewBox="0 0 36 36" fill="none" xmlns="http://www.w3.org/2000/svg">
<circle cx="18" cy="18" r="18" fill="url(#paint0_linear_138_11900)" fill-opacity="0.5"/>
<path d="M12.2902 11.0352C12.5096 10.828 12.8265 10.7915 13.0946 10.9255C13.1189 10.9377 13.1433 10.9499 13.1677 10.9621C13.6552 11.2424 14.1305 11.5471 14.6179 11.8152C14.7276 11.8761 14.9957 11.8517 15.1176 11.8152C15.2151 11.7908 15.2395 11.7786 15.2882 11.7664C15.9219 11.6689 16.0194 11.2302 16.0925 10.6574C16.1535 10.2552 16.2753 9.86527 16.3728 9.4631C16.446 9.19499 16.6897 9 16.97 9C17.6281 9 18.2862 9 18.9443 9C19.2733 9 19.4683 9.15843 19.5414 9.47529C19.6755 10.0603 19.8217 10.633 19.9558 11.218C20.0045 11.413 20.1142 11.5105 20.2848 11.608C20.8942 11.9858 21.4182 11.8639 21.9544 11.4496C22.2225 11.2302 22.5516 11.084 22.8562 10.9012C23.1244 10.7427 23.3681 10.7671 23.5996 10.9865C24.0627 11.4496 24.5258 11.9127 24.9889 12.3758C25.2327 12.6195 25.2327 12.8876 25.0621 13.1679C24.7696 13.6554 24.4771 14.155 24.1724 14.6425C24.0749 14.8009 24.1115 15.0569 24.1724 15.2153C24.2212 15.3494 24.2456 15.4103 24.2943 15.5078C24.5746 16.0684 24.794 16.0928 25.3302 16.1659C25.7202 16.2268 26.098 16.3487 26.4879 16.4462C26.8535 16.5315 27.0242 16.7508 26.9876 17.1652C26.9388 17.7502 26.951 18.3351 26.9876 18.9323C27.012 19.3223 26.8535 19.5416 26.5001 19.6269C25.9152 19.761 25.3424 19.8707 24.7574 20.0047C24.5502 20.0535 24.4893 20.2241 24.3796 20.3947C24.0018 20.9919 24.1237 21.5037 24.538 22.0278C24.7452 22.2837 24.8915 22.6005 25.0621 22.8808C25.2327 23.1611 25.1839 23.5146 24.9524 23.7461C24.5137 24.1726 24.0871 24.5992 23.6606 25.0379C23.4047 25.306 23.1244 25.3426 22.8075 25.1476C22.32 24.8551 21.7351 24.5383 21.2232 24.2823C21.1501 24.2458 20.882 24.2336 20.7357 24.258C20.0167 24.392 19.6633 24.7942 19.5902 25.501C19.5536 25.8422 19.6267 26.22 19.5292 26.5613C19.4439 26.8903 19.2124 27.0487 18.8224 27C18.2374 26.9391 17.6403 26.9634 17.0553 27C16.6775 27.0244 16.446 26.8781 16.3606 26.5369C16.2266 26.0129 16.0925 25.501 15.9707 24.977C15.9219 24.7576 15.7879 24.5748 15.5929 24.4529C14.9835 24.0752 14.4717 24.197 13.9476 24.6114C13.6795 24.8307 13.3505 24.977 13.0458 25.1598C12.7655 25.3182 12.4974 25.2938 12.2659 25.0501C11.8271 24.5992 11.3884 24.1483 10.9375 23.7217C10.6816 23.478 10.645 23.2099 10.8278 22.9052C11.1325 22.4056 11.4981 21.7596 11.7296 21.2234C11.7784 21.1016 11.754 20.9309 11.7296 20.7847C11.5956 20.0657 11.1447 19.9316 10.45 19.8585C10.1088 19.8219 9.76755 19.7001 9.42632 19.6026C9.0729 19.5051 8.92666 19.2613 8.99978 18.8226C9.08509 18.2986 9.08509 17.7502 8.99978 17.2261C8.92666 16.7874 9.09728 16.5315 9.46288 16.4462C10.0235 16.2999 10.5963 16.1781 11.1569 16.0074C11.2909 15.9709 11.4006 15.8612 11.4859 15.7271C11.5103 15.6906 11.5347 15.654 11.559 15.6175C11.9246 15.0934 11.7784 14.5816 11.425 14.1185C11.2056 13.826 11.0472 13.497 10.8644 13.1923C10.6694 12.8754 10.6938 12.6073 10.9619 12.3392C11.4128 11.9127 11.8393 11.4617 12.2902 11.0352ZM17.9449 15.3981C16.5069 15.3981 15.3126 16.6046 15.3248 18.0427C15.3248 19.4807 16.5313 20.675 17.9693 20.6628C19.4074 20.6628 20.6017 19.4563 20.5895 18.0183C20.5895 16.5802 19.3952 15.3859 17.9449 15.3981Z" fill="white"/>
<defs>
<linearGradient id="paint0_linear_138_11900" x1="3.72973" y1="-2.48999e-07" x2="22.3784" y2="37.6216" gradientUnits="userSpaceOnUse">
<stop stop-color="#CE80FF"/>
<stop offset="1" stop-color="#8A75FF"/>
</linearGradient>
</defs>
</svg>
