<svg width="36" height="36" viewBox="0 0 36 36" fill="none" xmlns="http://www.w3.org/2000/svg">
<circle cx="18" cy="18" r="18" fill="url(#paint0_linear_138_12006)" fill-opacity="0.1"/>
<g clip-path="url(#clip0_138_12006)">
<path d="M9.04255 22.1555C9.13385 22.0922 9.19004 22.057 9.24622 22.0078C10.3699 21.0727 11.5006 20.1375 12.6173 19.2023C13.5022 18.4641 14.0781 18.4641 14.97 19.2164C15.4686 19.6383 15.9743 20.0531 16.5221 20.5102C16.6134 20.3977 16.6906 20.2922 16.7819 20.2008C18.2708 18.7102 19.7527 17.2125 21.2486 15.7219C21.9438 15.0258 22.8217 15.0539 23.4538 15.7781C24.0929 16.5094 24.725 17.2477 25.357 17.9859C25.8838 18.5906 26.4035 19.1953 26.9934 19.8773C26.9934 19.6805 26.9934 19.582 26.9934 19.4766C26.9934 16.7695 26.9934 14.0625 26.9934 11.3555C27.0004 10.0055 25.9961 9 24.6477 9C20.2232 9 15.7987 9 11.3742 9C10.0258 9 9.02148 10.0055 9.02148 11.3555C9.02148 14.85 9.02148 18.3375 9.02148 21.832C9.02148 21.9234 9.03553 22.0219 9.04255 22.1555ZM14.668 11.2219C16.0796 11.2078 17.2384 12.3609 17.2384 13.7742C17.2384 15.1734 16.0937 16.3125 14.6961 16.3195C13.2774 16.3195 12.1186 15.1805 12.1186 13.7742C12.1257 12.375 13.2634 11.2359 14.668 11.2219Z" fill="url(#paint1_linear_138_12006)"/>
<path d="M14.7026 15.2578C15.5102 15.2508 16.1774 14.5828 16.1774 13.7813C16.1844 12.9656 15.5032 12.2906 14.6815 12.2906C13.8528 12.2906 13.1786 12.9727 13.1856 13.7813C13.1926 14.6039 13.8739 15.2649 14.7026 15.2578Z" fill="url(#paint2_linear_138_12006)"/>
<path d="M26.9933 21.7266C26.9933 21.6 26.9441 21.4453 26.8669 21.3539C25.5114 19.7719 24.149 18.1969 22.7865 16.6219C22.3932 16.1649 22.3089 16.1649 21.8735 16.6008C20.2723 18.2109 18.664 19.8211 17.0628 21.4313C16.6624 21.832 16.4728 21.8461 16.0444 21.4875C15.4404 20.9883 14.8365 20.482 14.2325 19.9828C13.8111 19.6383 13.7549 19.6383 13.3405 19.9899C12.1607 20.9742 11.0089 21.9867 9.79392 22.9219C9.20399 23.3719 8.97223 23.8359 9.00735 24.5813C9.07055 26.0156 9.99759 27 11.4443 27C13.6355 27 15.8197 27 18.0109 27C20.2442 27 22.4845 27.007 24.7178 27C25.975 26.993 26.9863 25.9805 27.0003 24.7219C27.0073 23.7164 27.0003 22.725 26.9933 21.7266ZM21.7239 22.8848C19.6591 22.8848 22 25.5672 22 23.5C22 21.4328 20.4352 23 22.5 23C24.5648 23 21.267 20.8176 21.267 22.8848C21.267 24.952 23.7887 22.8848 21.7239 22.8848Z" fill="url(#paint3_linear_138_12006)"/>
</g>
<defs>
<linearGradient id="paint0_linear_138_12006" x1="3.72973" y1="-2.48999e-07" x2="22.3784" y2="37.6216" gradientUnits="userSpaceOnUse">
<stop stop-color="#CE80FF"/>
<stop offset="1" stop-color="#8A75FF"/>
</linearGradient>
<linearGradient id="paint1_linear_138_12006" x1="10.8834" y1="9" x2="16.3746" y2="24.1336" gradientUnits="userSpaceOnUse">
<stop stop-color="#CE80FF"/>
<stop offset="1" stop-color="#8A75FF"/>
</linearGradient>
<linearGradient id="paint2_linear_138_12006" x1="13.4955" y1="12.2906" x2="15.0249" y2="15.4016" gradientUnits="userSpaceOnUse">
<stop stop-color="#CE80FF"/>
<stop offset="1" stop-color="#8A75FF"/>
</linearGradient>
<linearGradient id="paint3_linear_138_12006" x1="10.8687" y1="16.2764" x2="14.6627" y2="29.1199" gradientUnits="userSpaceOnUse">
<stop stop-color="#CE80FF"/>
<stop offset="1" stop-color="#8A75FF"/>
</linearGradient>
<clipPath id="clip0_138_12006">
<rect width="18" height="18" fill="white" transform="translate(9 9)"/>
</clipPath>
</defs>
</svg>
