<svg width="36" height="36" viewBox="0 0 36 36" fill="none" xmlns="http://www.w3.org/2000/svg">
<circle cx="18" cy="18" r="18" fill="url(#paint0_linear_138_11946)" fill-opacity="0.1"/>
<path d="M11.4082 14.4802H16.2V15.6411H11.4082V14.4802ZM11.4082 17.9868H16.2V16.826H11.4082V17.9868ZM11.4082 20.336H16.2V19.1751H11.4082V20.336ZM24.5918 14.4802H19.8V15.6411H24.5918V14.4802ZM24.5918 16.8294H19.8V17.9903H24.5918V16.8294ZM24.5918 19.1477H19.8V20.3085H24.5918V19.1477ZM27 12.1345V22.6543C27 23.3015 26.4727 23.8151 25.8082 23.8151H19.1918L18 25L16.8082 23.8391H10.1918C9.52734 23.8426 9 23.3289 9 22.6817V12.1619C9 11.5147 9.52734 11.001 10.1918 11.001H16.7836L17.9754 12.1619L19.1672 11.001H25.759C26.4727 10.9737 27 11.4873 27 12.1345ZM17.3918 12.7269L16.7836 12.1345H10.1918V22.6543H17.3918V12.7269ZM25.8082 12.1345H19.1918L18.5801 12.7269V22.6543H25.7801V12.1345H25.8082Z" fill="url(#paint1_linear_138_11946)"/>
<defs>
<linearGradient id="paint0_linear_138_11946" x1="3.72973" y1="-2.48999e-07" x2="22.3784" y2="37.6216" gradientUnits="userSpaceOnUse">
<stop stop-color="#FEB49C"/>
<stop offset="1" stop-color="#FD6B87"/>
</linearGradient>
<linearGradient id="paint1_linear_138_11946" x1="10.8649" y1="11" x2="16.9822" y2="26.867" gradientUnits="userSpaceOnUse">
<stop stop-color="#FEB49C"/>
<stop offset="1" stop-color="#FD6B87"/>
</linearGradient>
</defs>
</svg>
