<svg width="36" height="36" viewBox="0 0 36 36" fill="none" xmlns="http://www.w3.org/2000/svg">
<circle cx="18" cy="18" r="18" fill="url(#paint0_linear_138_11933)" fill-opacity="0.1"/>
<g clip-path="url(#clip0_138_11933)">
<path d="M17.7103 26.9999C16.4222 26.9999 15.1388 27.0047 13.8508 26.9999C11.4735 26.9905 9.59345 24.9589 9.7592 22.5816C9.89653 20.6448 11.4072 19.0441 13.3346 18.7979C13.5382 18.7695 13.7418 18.76 13.9455 18.76C16.4695 18.76 18.9936 18.76 21.5177 18.76C23.9234 18.76 25.7987 20.7537 25.6566 23.1546C25.5429 25.0868 24.0323 26.6969 22.1002 26.9621C21.8965 26.9905 21.6929 26.9999 21.4893 26.9999C20.2343 26.9999 18.9699 26.9999 17.7103 26.9999ZM24.1507 22.9226C24.1459 21.4593 22.9478 20.2707 21.4845 20.2754C20.0354 20.2801 18.8468 21.4782 18.8515 22.9321C18.8515 24.3954 20.0544 25.584 21.5224 25.5793C22.9668 25.5698 24.1554 24.3717 24.1507 22.9226Z" fill="url(#paint1_linear_138_11933)"/>
<path d="M17.7146 8.99996C18.9838 8.99996 20.2529 8.99996 21.5268 8.99996C23.6341 9.0047 25.3437 10.5011 25.6278 12.5943C25.9309 14.8342 24.335 16.9131 22.0808 17.202C21.8819 17.2257 21.6878 17.2399 21.4936 17.2399C18.9696 17.2399 16.4455 17.2399 13.9214 17.2399C11.9798 17.2399 10.3602 15.9802 9.87721 14.1049C9.27579 11.7656 10.9096 9.3504 13.2916 9.04258C13.7557 8.98102 14.2197 9.00943 14.6838 9.0047C15.6973 8.99523 16.7059 8.99996 17.7146 8.99996ZM16.5733 13.0773C16.5733 11.6235 15.3847 10.4301 13.9356 10.4254C12.4723 10.4206 11.2742 11.6093 11.2695 13.0726C11.2695 14.5217 12.4581 15.7198 13.9072 15.7245C15.3752 15.734 16.5733 14.5406 16.5733 13.0773Z" fill="url(#paint2_linear_138_11933)"/>
</g>
<defs>
<linearGradient id="paint0_linear_138_11933" x1="3.72973" y1="-2.48999e-07" x2="22.3784" y2="37.6216" gradientUnits="userSpaceOnUse">
<stop stop-color="#CE80FF"/>
<stop offset="1" stop-color="#8A75FF"/>
</linearGradient>
<linearGradient id="paint1_linear_138_11933" x1="11.3979" y1="18.76" x2="13.982" y2="28.8263" gradientUnits="userSpaceOnUse">
<stop stop-color="#CE80FF"/>
<stop offset="1" stop-color="#8A75FF"/>
</linearGradient>
<linearGradient id="paint2_linear_138_11933" x1="11.4006" y1="8.99878" x2="13.9844" y2="19.0639" gradientUnits="userSpaceOnUse">
<stop stop-color="#CE80FF"/>
<stop offset="1" stop-color="#8A75FF"/>
</linearGradient>
<clipPath id="clip0_138_11933">
<rect width="18" height="18" fill="white" transform="translate(9 9)"/>
</clipPath>
</defs>
</svg>
