<svg width="36" height="36" viewBox="0 0 36 36" fill="none" xmlns="http://www.w3.org/2000/svg">
<circle cx="18" cy="18" r="18" fill="url(#paint0_linear_138_12046)" fill-opacity="0.1"/>
<g clip-path="url(#clip0_138_12046)">
<path d="M23.7929 22.5791C23.1193 22.5179 22.5474 23.1136 22.571 23.7894C22.5724 23.8289 22.574 23.8682 22.576 23.9075C22.583 24.0199 22.6604 24.1464 22.7448 24.2308C23.3005 24.8001 23.8843 25.3483 24.4259 25.9317C24.5525 26.0722 24.6651 26.3393 24.6158 26.508C24.5666 26.6767 24.3345 26.8594 24.1516 26.9016C22.1258 27.3725 20.1493 26.1003 19.7131 24.0761C19.5865 23.4787 19.6287 22.8953 19.7694 22.305C19.7976 22.1855 19.7553 22.0027 19.678 21.9184C17.821 20.0488 15.957 18.1863 14.0859 16.3307C14.0015 16.2464 13.8187 16.2042 13.6991 16.2323C10.9277 16.9211 8.55722 14.7001 9.08477 11.8817C9.11994 11.6849 9.30283 11.4459 9.47868 11.3756C9.62639 11.3194 9.91478 11.4319 10.0484 11.5654C10.6323 12.1066 11.1809 12.69 11.7507 13.2382C11.8562 13.3366 12.025 13.4069 12.1727 13.4139C12.8594 13.4507 13.4282 12.8633 13.4152 12.1757C13.414 12.1129 13.4125 12.0501 13.4107 11.9871C13.4107 11.9028 13.3052 11.8114 13.2348 11.7411C12.6791 11.1859 12.1164 10.6447 11.5748 10.0683C11.4412 9.92776 11.3427 9.68176 11.3568 9.49199C11.3708 9.21788 11.6311 9.11245 11.8913 9.07028C14.1985 8.64857 16.1821 10.1527 16.3439 12.4861C16.372 12.8868 16.2454 13.2944 16.2172 13.7021C16.2102 13.8216 16.2313 13.9832 16.3017 14.0605C18.1657 15.9371 20.0367 17.8137 21.9218 19.6763C22.0062 19.7606 22.2172 19.7817 22.3439 19.7536C24.4119 19.2405 26.3954 20.4002 26.8597 22.4596C26.9793 23.0008 26.93 23.5982 26.8878 24.1605C26.8738 24.3292 26.6627 24.5611 26.4939 24.6244C26.3462 24.6736 26.0789 24.5681 25.9453 24.4416C25.3614 23.9004 24.8198 23.3171 24.243 22.7688C24.1305 22.6634 23.9476 22.5931 23.7929 22.5791Z" fill="url(#paint1_linear_138_12046)"/>
<path d="M10.5054 26.747C10.3451 26.6402 10.3111 26.4146 10.4477 26.2788C11.6675 25.0647 12.8595 23.868 14.0575 22.6775C14.1419 22.5931 14.2334 22.5158 14.2967 22.4244C14.4585 22.1925 14.4374 21.9535 14.2334 21.7567C14.0364 21.5599 13.7973 21.5388 13.5652 21.7075C13.4807 21.7638 13.4104 21.8481 13.333 21.9254C12.1302 23.1273 10.9274 24.3292 9.73162 25.531C9.59028 25.6723 9.36588 25.6837 9.27228 25.5072C8.8242 24.662 8.93632 23.5285 9.55577 22.7548C9.68942 22.5931 9.83713 22.4385 9.98485 22.2909C10.7702 21.5023 11.5577 20.7158 12.3401 19.9352C13.3705 18.907 15.0396 18.9074 16.0693 19.9363C16.6643 20.531 17.2603 21.1264 17.8609 21.7266C17.9009 21.7665 17.9099 21.8363 17.87 21.8762C16.435 23.31 15.0071 24.7438 13.5652 26.1777C12.6859 27.0492 11.5464 27.253 10.5054 26.747Z" fill="url(#paint2_linear_138_12046)"/>
<path d="M20.4605 16.2543C20.3595 16.3954 20.1444 16.3792 20.0242 16.254C19.9268 16.1525 19.83 16.0511 19.7311 15.9482C19.6183 15.8308 19.6106 15.643 19.7202 15.5225C20.2407 15.0024 20.7401 14.4471 21.2958 13.9692C21.753 13.5756 21.964 13.1117 22.0062 12.5213C22.0414 12.0082 22.1188 11.5022 22.2243 10.9961C22.2595 10.8204 22.4072 10.6025 22.5619 10.5182C23.5115 10.0121 24.4752 9.54824 25.4388 9.06327C25.6921 8.93676 25.9171 8.96487 26.1141 9.16167C26.3462 9.39361 26.5783 9.62555 26.8105 9.85749C27.0215 10.0683 27.0426 10.3003 26.9089 10.5603C26.4306 11.5092 25.9664 12.4651 25.467 13.3999C25.3755 13.5615 25.1504 13.7161 24.9605 13.7583C24.3064 13.8848 23.6381 13.9411 22.984 14.0605C22.7589 14.1027 22.5197 14.2152 22.3509 14.3698C21.72 14.9656 21.1164 15.5887 20.5064 16.1987C20.4888 16.2164 20.4751 16.234 20.4605 16.2543Z" fill="url(#paint3_linear_138_12046)"/>
</g>
<defs>
<linearGradient id="paint0_linear_138_12046" x1="3.72973" y1="-2.48999e-07" x2="22.3784" y2="37.6216" gradientUnits="userSpaceOnUse">
<stop stop-color="#CE80FF"/>
<stop offset="1" stop-color="#8A75FF"/>
</linearGradient>
<linearGradient id="paint1_linear_138_12046" x1="10.8677" y1="8.99951" x2="20.216" y2="27.7789" gradientUnits="userSpaceOnUse">
<stop stop-color="#CE80FF"/>
<stop offset="1" stop-color="#8A75FF"/>
</linearGradient>
<linearGradient id="paint2_linear_138_12046" x1="9.92561" y1="18.0738" x2="14.5632" y2="27.4177" gradientUnits="userSpaceOnUse">
<stop stop-color="#CE80FF"/>
<stop offset="1" stop-color="#8A75FF"/>
</linearGradient>
<linearGradient id="paint3_linear_138_12046" x1="20.3034" y1="8.98657" x2="24.1935" y2="16.8037" gradientUnits="userSpaceOnUse">
<stop stop-color="#CE80FF"/>
<stop offset="1" stop-color="#8A75FF"/>
</linearGradient>
<clipPath id="clip0_138_12046">
<rect width="18" height="18" fill="white" transform="translate(9 9)"/>
</clipPath>
</defs>
</svg>
