<svg width="36" height="36" viewBox="0 0 36 36" fill="none" xmlns="http://www.w3.org/2000/svg">
<circle cx="18" cy="18" r="18" fill="url(#paint0_linear_138_11984)" fill-opacity="0.1"/>
<path d="M15.4946 22.0365C14.6354 22.0365 13.7832 22.0441 12.9239 22.0288C12.6986 22.0211 12.6 22.1133 12.5225 22.336C12.2126 23.2577 11.9379 24.1947 11.5435 25.078C11.1843 25.8844 10.5857 26.1763 9.88843 25.8921C9.19822 25.6079 8.84607 24.886 9.0644 24.0565C9.36021 22.9504 9.79687 21.9059 10.1842 20.8383C11.2336 17.9197 12.2901 15.0011 13.3465 12.0824C13.4522 11.7829 13.5719 11.4987 13.7057 11.2145C14.0649 10.4388 14.6354 10.024 15.4453 10.001C16.2905 9.97795 16.9243 10.3543 17.3187 11.1684C17.8117 12.1823 18.1357 13.2806 18.5301 14.3405C19.6429 17.3052 20.7346 20.2776 21.8333 23.2423C21.9389 23.5342 22.0305 23.8414 22.0939 24.1563C22.2488 24.9397 21.8826 25.6463 21.2205 25.8998C20.5233 26.1686 19.9176 25.8921 19.5584 25.1241C19.1429 24.2331 18.8471 23.2884 18.5301 22.359C18.4386 22.0979 18.3259 22.0211 18.0794 22.0288C17.2131 22.0441 16.3539 22.0365 15.4946 22.0365ZM15.4876 13.296C14.7762 15.4772 14.086 17.5587 13.3958 19.6632C14.8185 19.6632 16.1989 19.6632 17.6216 19.6632C16.9173 17.5587 16.22 15.4772 15.4876 13.296Z" fill="url(#paint1_linear_138_11984)"/>
<path d="M21.911 16.4372C21.6786 17.1515 21.4532 17.8428 21.2208 18.5417C21.094 18.4803 21.094 18.342 21.0518 18.2345C20.8194 17.62 20.6433 16.9749 20.3545 16.3988C20.0446 15.7844 20.3334 15.3235 20.5447 14.8243C20.7489 14.3327 21.08 13.9948 21.58 13.8796C22.3759 13.6953 23.0379 14.0409 23.4041 14.9241C23.7774 15.8151 24.0943 16.7368 24.4324 17.6508C25.2071 19.7168 25.9818 21.7829 26.7495 23.849C26.834 24.0871 26.9115 24.3329 26.9679 24.5786C27.0946 25.1316 26.834 25.6693 26.3551 25.892C25.8692 26.1147 25.355 25.9304 25.0874 25.4081C24.7423 24.7246 24.5099 23.9872 24.2634 23.2576C24.1929 23.0425 24.0873 22.9734 23.883 22.9811C23.5239 22.9888 23.0801 23.1424 22.8266 22.9196C22.5871 22.7123 22.5378 22.2437 22.404 21.8904C22.1505 21.2069 22.1505 21.2069 22.8125 21.1992C23.5661 21.1915 23.5591 21.1915 23.2985 20.4081C22.89 19.2022 22.4815 17.9887 22.073 16.7828C22.0448 16.6676 22.0307 16.5294 21.911 16.4372Z" fill="url(#paint2_linear_138_11984)"/>
<defs>
<linearGradient id="paint0_linear_138_11984" x1="3.72973" y1="-2.48999e-07" x2="22.3784" y2="37.6216" gradientUnits="userSpaceOnUse">
<stop stop-color="#BBE897"/>
<stop offset="1" stop-color="#08CD87"/>
</linearGradient>
<linearGradient id="paint1_linear_138_11984" x1="10.3602" y1="10" x2="19.5787" y2="25.2605" gradientUnits="userSpaceOnUse">
<stop stop-color="#BBE897"/>
<stop offset="1" stop-color="#08CD87"/>
</linearGradient>
<linearGradient id="paint2_linear_138_11984" x1="20.9213" y1="13.8315" x2="28.777" y2="22.674" gradientUnits="userSpaceOnUse">
<stop stop-color="#BBE897"/>
<stop offset="1" stop-color="#08CD87"/>
</linearGradient>
</defs>
</svg>
