<svg width="36" height="36" viewBox="0 0 36 36" fill="none" xmlns="http://www.w3.org/2000/svg">
<circle cx="18" cy="18" r="18" fill="url(#paint0_linear_138_12022)" fill-opacity="0.1"/>
<g clip-path="url(#clip0_138_12022)">
<path d="M17.9808 25C15.6013 25 13.2217 25 10.8422 25C9.62942 25 9 24.3766 9 23.1753C9 20.7425 9 18.3097 9 15.8768C9 14.6908 9.65245 14.0522 10.8499 14.0522C15.6166 14.0522 20.391 14.0522 25.1578 14.0522C26.3552 14.0522 27 14.6984 27 15.8844C27 18.3173 27 20.7501 27 23.1829C27 24.3766 26.3629 25 25.1501 25C22.7629 25 20.368 25 17.9808 25ZM15.3096 19.5413C15.3096 20.2255 15.3019 20.9098 15.3096 21.594C15.3249 22.5975 16.2768 23.1677 17.1672 22.6812C18.3876 22.0045 19.6004 21.3051 20.8055 20.5981C21.6652 20.0887 21.6729 18.9939 20.8209 18.4845C19.6081 17.7623 18.38 17.0628 17.1441 16.3862C16.2768 15.9072 15.3249 16.4774 15.3096 17.4582C15.3019 18.15 15.3096 18.8494 15.3096 19.5413Z" fill="url(#paint1_linear_138_12022)"/>
<path d="M10.0059 13.2919C10.3129 12.5925 10.8118 12.1819 11.5487 12.0527C11.7099 12.0223 11.8788 12.0223 12.0477 12.0223C16.0391 12.0223 20.0229 12.0223 24.0144 12.0223C25.0583 12.0223 25.7491 12.4632 26.0408 13.2919C20.7061 13.2919 15.3713 13.2919 10.0059 13.2919Z" fill="url(#paint2_linear_138_12022)"/>
<path d="M11.1875 11.2468C11.3717 10.5169 12.0779 10.0076 12.953 9.99996C15.5244 9.99996 18.0881 9.99996 20.6596 9.99996C21.4809 9.99996 22.2945 9.99236 23.1159 9.99996C23.9218 10.0076 24.5436 10.4561 24.8353 11.2392C20.2758 11.2468 15.7316 11.2468 11.1875 11.2468Z" fill="url(#paint3_linear_138_12022)"/>
</g>
<defs>
<linearGradient id="paint0_linear_138_12022" x1="3.72973" y1="-2.48999e-07" x2="22.3784" y2="37.6216" gradientUnits="userSpaceOnUse">
<stop stop-color="#FEB49C"/>
<stop offset="1" stop-color="#FD6B87"/>
</linearGradient>
<linearGradient id="paint1_linear_138_12022" x1="10.8649" y1="14.0522" x2="14.8036" y2="27.1168" gradientUnits="userSpaceOnUse">
<stop stop-color="#FEB49C"/>
<stop offset="1" stop-color="#FD6B87"/>
</linearGradient>
<linearGradient id="paint2_linear_138_12022" x1="11.6671" y1="12.0223" x2="11.7319" y2="13.6726" gradientUnits="userSpaceOnUse">
<stop stop-color="#FEB49C"/>
<stop offset="1" stop-color="#FD6B87"/>
</linearGradient>
<linearGradient id="paint3_linear_138_12022" x1="12.6015" y1="9.99658" x2="12.6752" y2="11.6208" gradientUnits="userSpaceOnUse">
<stop stop-color="#FEB49C"/>
<stop offset="1" stop-color="#FD6B87"/>
</linearGradient>
<clipPath id="clip0_138_12022">
<rect width="18" height="15" fill="white" transform="translate(9 10)"/>
</clipPath>
</defs>
</svg>
